<svg xmlns="http://www.w3.org/2000/svg" viewBox="0 0 400 300" width="400" height="300" role="img" aria-label="Manganese on the periodic table"><title>Manganese on the periodic table</title><rect x="21" y="13" width="18" height="18" rx="2" fill="rgba(255,255,255,.10)"/><rect x="361" y="13" width="18" height="18" rx="2" fill="rgba(255,255,255,.10)"/><rect x="21" y="33" width="18" height="18" rx="2" fill="rgba(255,255,255,.10)"/><rect x="41" y="33" width="18" height="18" rx="2" fill="rgba(255,255,255,.10)"/><rect x="261" y="33" width="18" height="18" rx="2" fill="rgba(255,255,255,.10)"/><rect x="281" y="33" width="18" height="18" rx="2" fill="rgba(255,255,255,.10)"/><rect x="301" y="33" width="18" height="18" rx="2" fill="rgba(255,255,255,.10)"/><rect x="321" y="33" width="18" height="18" rx="2" fill="rgba(255,255,255,.10)"/><rect x="341" y="33" width="18" height="18" rx="2" fill="rgba(255,255,255,.10)"/><rect x="361" y="33" width="18" height="18" rx="2" fill="rgba(255,255,255,.10)"/><rect x="21" y="53" width="18" height="18" rx="2" fill="rgba(255,255,255,.10)"/><rect x="41" y="53" width="18" height="18" rx="2" fill="rgba(255,255,255,.10)"/><rect x="261" y="53" width="18" height="18" rx="2" fill="rgba(255,255,255,.10)"/><rect x="281" y="53" width="18" height="18" rx="2" fill="rgba(255,255,255,.10)"/><rect x="301" y="53" width="18" height="18" rx="2" fill="rgba(255,255,255,.10)"/><rect x="321" y="53" width="18" height="18" rx="2" fill="rgba(255,255,255,.10)"/><rect x="341" y="53" width="18" height="18" rx="2" fill="rgba(255,255,255,.10)"/><rect x="361" y="53" width="18" height="18" rx="2" fill="rgba(255,255,255,.10)"/><rect x="21" y="73" width="18" height="18" rx="2" fill="rgba(255,255,255,.10)"/><rect x="41" y="73" width="18" height="18" rx="2" fill="rgba(255,255,255,.10)"/><rect x="61" y="73" width="18" height="18" rx="2" fill="rgba(255,255,255,.10)"/><rect x="81" y="73" width="18" height="18" rx="2" fill="rgba(255,255,255,.10)"/><rect x="101" y="73" width="18" height="18" rx="2" fill="rgba(255,255,255,.10)"/><rect x="121" y="73" width="18" height="18" rx="2" fill="rgba(255,255,255,.10)"/><rect x="141" y="73" width="18" height="18" rx="2" fill="#fca315"/><text x="150.0" y="86" font-family="system-ui,-apple-system,Segoe UI,Helvetica,Arial,sans-serif" font-size="10" fill="#00004d" text-anchor="middle" font-weight="800" >Mn</text><rect x="161.5" y="73.5" width="17" height="17" rx="2" fill="none" stroke="#ffffff" stroke-width="1.6"/><text x="170.0" y="86" font-family="system-ui,-apple-system,Segoe UI,Helvetica,Arial,sans-serif" font-size="10" fill="#ffffff" text-anchor="middle" font-weight="700" >Fe</text><rect x="181" y="73" width="18" height="18" rx="2" fill="rgba(255,255,255,.10)"/><rect x="201" y="73" width="18" height="18" rx="2" fill="rgba(255,255,255,.10)"/><rect x="221" y="73" width="18" height="18" rx="2" fill="rgba(255,255,255,.10)"/><rect x="241" y="73" width="18" height="18" rx="2" fill="rgba(255,255,255,.10)"/><rect x="261" y="73" width="18" height="18" rx="2" fill="rgba(255,255,255,.10)"/><rect x="281" y="73" width="18" height="18" rx="2" fill="rgba(255,255,255,.10)"/><rect x="301" y="73" width="18" height="18" rx="2" fill="rgba(255,255,255,.10)"/><rect x="321" y="73" width="18" height="18" rx="2" fill="rgba(255,255,255,.10)"/><rect x="341" y="73" width="18" height="18" rx="2" fill="rgba(255,255,255,.10)"/><rect x="361" y="73" width="18" height="18" rx="2" fill="rgba(255,255,255,.10)"/><rect x="21" y="93" width="18" height="18" rx="2" fill="rgba(255,255,255,.10)"/><rect x="41" y="93" width="18" height="18" rx="2" fill="rgba(255,255,255,.10)"/><rect x="61" y="93" width="18" height="18" rx="2" fill="rgba(255,255,255,.10)"/><rect x="81" y="93" width="18" height="18" rx="2" fill="rgba(255,255,255,.10)"/><rect x="101" y="93" width="18" height="18" rx="2" fill="rgba(255,255,255,.10)"/><rect x="121" y="93" width="18" height="18" rx="2" fill="rgba(255,255,255,.10)"/><rect x="141" y="93" width="18" height="18" rx="2" fill="rgba(255,255,255,.10)"/><rect x="161" y="93" width="18" height="18" rx="2" fill="rgba(255,255,255,.10)"/><rect x="181" y="93" width="18" height="18" rx="2" fill="rgba(255,255,255,.10)"/><rect x="201" y="93" width="18" height="18" rx="2" fill="rgba(255,255,255,.10)"/><rect x="221" y="93" width="18" height="18" rx="2" fill="rgba(255,255,255,.10)"/><rect x="241" y="93" width="18" height="18" rx="2" fill="rgba(255,255,255,.10)"/><rect x="261" y="93" width="18" height="18" rx="2" fill="rgba(255,255,255,.10)"/><rect x="281" y="93" width="18" height="18" rx="2" fill="rgba(255,255,255,.10)"/><rect x="301" y="93" width="18" height="18" rx="2" fill="rgba(255,255,255,.10)"/><rect x="321" y="93" width="18" height="18" rx="2" fill="rgba(255,255,255,.10)"/><rect x="341" y="93" width="18" height="18" rx="2" fill="rgba(255,255,255,.10)"/><rect x="361" y="93" width="18" height="18" rx="2" fill="rgba(255,255,255,.10)"/><rect x="21" y="113" width="18" height="18" rx="2" fill="rgba(255,255,255,.10)"/><rect x="41" y="113" width="18" height="18" rx="2" fill="rgba(255,255,255,.10)"/><rect x="61" y="113" width="18" height="18" rx="2" fill="rgba(255,255,255,.10)"/><rect x="81" y="113" width="18" height="18" rx="2" fill="rgba(255,255,255,.10)"/><rect x="101" y="113" width="18" height="18" rx="2" fill="rgba(255,255,255,.10)"/><rect x="121" y="113" width="18" height="18" rx="2" fill="rgba(255,255,255,.10)"/><rect x="141" y="113" width="18" height="18" rx="2" fill="rgba(255,255,255,.10)"/><rect x="161" y="113" width="18" height="18" rx="2" fill="rgba(255,255,255,.10)"/><rect x="181" y="113" width="18" height="18" rx="2" fill="rgba(255,255,255,.10)"/><rect x="201" y="113" width="18" height="18" rx="2" fill="rgba(255,255,255,.10)"/><rect x="221" y="113" width="18" height="18" rx="2" fill="rgba(255,255,255,.10)"/><rect x="241" y="113" width="18" height="18" rx="2" fill="rgba(255,255,255,.10)"/><rect x="261" y="113" width="18" height="18" rx="2" fill="rgba(255,255,255,.10)"/><rect x="281" y="113" width="18" height="18" rx="2" fill="rgba(255,255,255,.10)"/><rect x="301" y="113" width="18" height="18" rx="2" fill="rgba(255,255,255,.10)"/><rect x="321" y="113" width="18" height="18" rx="2" fill="rgba(255,255,255,.10)"/><rect x="341" y="113" width="18" height="18" rx="2" fill="rgba(255,255,255,.10)"/><rect x="361" y="113" width="18" height="18" rx="2" fill="rgba(255,255,255,.10)"/><rect x="21" y="133" width="18" height="18" rx="2" fill="rgba(255,255,255,.10)"/><rect x="41" y="133" width="18" height="18" rx="2" fill="rgba(255,255,255,.10)"/><rect x="61" y="133" width="18" height="18" rx="2" fill="rgba(255,255,255,.10)"/><rect x="81" y="133" width="18" height="18" rx="2" fill="rgba(255,255,255,.10)"/><rect x="101" y="133" width="18" height="18" rx="2" fill="rgba(255,255,255,.10)"/><rect x="121" y="133" width="18" height="18" rx="2" fill="rgba(255,255,255,.10)"/><rect x="141" y="133" width="18" height="18" rx="2" fill="rgba(255,255,255,.10)"/><rect x="161" y="133" width="18" height="18" rx="2" fill="rgba(255,255,255,.10)"/><rect x="181" y="133" width="18" height="18" rx="2" fill="rgba(255,255,255,.10)"/><rect x="201" y="133" width="18" height="18" rx="2" fill="rgba(255,255,255,.10)"/><rect x="221" y="133" width="18" height="18" rx="2" fill="rgba(255,255,255,.10)"/><rect x="241" y="133" width="18" height="18" rx="2" fill="rgba(255,255,255,.10)"/><rect x="261" y="133" width="18" height="18" rx="2" fill="rgba(255,255,255,.10)"/><rect x="281" y="133" width="18" height="18" rx="2" fill="rgba(255,255,255,.10)"/><rect x="301" y="133" width="18" height="18" rx="2" fill="rgba(255,255,255,.10)"/><rect x="321" y="133" width="18" height="18" rx="2" fill="rgba(255,255,255,.10)"/><rect x="341" y="133" width="18" height="18" rx="2" fill="rgba(255,255,255,.10)"/><rect x="361" y="133" width="18" height="18" rx="2" fill="rgba(255,255,255,.10)"/><rect x="20" y="168" width="92" height="104" rx="8" fill="none" stroke="#fca315" stroke-width="2"/><text x="30" y="186" font-family="system-ui,-apple-system,Segoe UI,Helvetica,Arial,sans-serif" font-size="13" fill="#fca315" text-anchor="start" font-weight="700" >25</text><text x="66" y="234" font-family="system-ui,-apple-system,Segoe UI,Helvetica,Arial,sans-serif" font-size="42" fill="#ffffff" text-anchor="middle" font-weight="800" >Mn</text><text x="66" y="260" font-family="system-ui,-apple-system,Segoe UI,Helvetica,Arial,sans-serif" font-size="12" fill="#ffffff" text-anchor="middle" font-weight="400" >Manganese</text><text x="126" y="186" font-family="system-ui,-apple-system,Segoe UI,Helvetica,Arial,sans-serif" font-size="16" fill="#ffffff" text-anchor="start" font-weight="700" >Manganese</text><text x="126" y="205" font-family="system-ui,-apple-system,Segoe UI,Helvetica,Arial,sans-serif" font-size="12" fill="rgba(255,255,255,.55)" text-anchor="start" font-weight="400" >element 25 · transition metal</text><text x="126" y="224" font-family="system-ui,-apple-system,Segoe UI,Helvetica,Arial,sans-serif" font-size="12" fill="rgba(255,255,255,.55)" text-anchor="start" font-weight="400" >row 4 · column 7</text><text x="126" y="243" font-family="system-ui,-apple-system,Segoe UI,Helvetica,Arial,sans-serif" font-size="12" fill="rgba(255,255,255,.55)" text-anchor="start" font-weight="400" >atomic mass 54.938</text><text x="126" y="262" font-family="system-ui,-apple-system,Segoe UI,Helvetica,Arial,sans-serif" font-size="12" fill="rgba(255,255,255,.55)" text-anchor="start" font-weight="400" >outlined: Iron (26)</text></svg>
